<svg xmlns="http://www.w3.org/2000/svg" version="1.1" xmlns:xlink="http://www.w3.org/1999/xlink" xmlns:svgjs="http://svgjs.com/svgjs" width="1920" height="800" preserveAspectRatio="none" viewBox="0 0 1920 800"><g mask="url(&quot;#SvgjsMask1072&quot;)" fill="none"><path d="M920.7 881.89C1120.38 831.72 1200.91 289.91 1492.09 288.84 1783.27 287.77 1894.28 641.38 2063.48 656.84" stroke="rgba(102, 238, 153, 1)" stroke-width="2"></path><path d="M750.45 895.65C878.12 875.54 805.29 591.43 1149.98 567.54 1494.66 543.65 1730.08 215.72 1949.03 207.54" stroke="rgba(102, 238, 153, 1)" stroke-width="2"></path><path d="M219.44 831.3C372.59 829.63 513.3 661.89 808.18 661.86 1103.06 661.83 1102.54 761.86 1396.91 761.86 1691.28 761.86 1836.36 662.21 1985.65 661.86" stroke="rgba(102, 238, 153, 1)" stroke-width="2"></path><path d="M1153.63 934.7C1355.95 870.44 1419.07 288.69 1702.1 286.49 1985.13 284.29 2086.28 637.97 2250.57 654.49" stroke="rgba(102, 238, 153, 1)" stroke-width="2"></path><path d="M779.92 921.97C986.28 875.77 1073.11 333.18 1384.98 330.89 1696.85 328.6 1822.67 611.67 1990.04 618.89" stroke="rgba(102, 238, 153, 1)" stroke-width="2"></path></g><defs><mask id="SvgjsMask1072"><rect width="1920" height="800" fill="#ffffff"></rect></mask></defs></svg>