<svg viewBox="0 0 12 14" fill="none" xmlns="http://www.w3.org/2000/svg">
  <path d="M6 1.625C5.10938 1.625 4.29688 1.84375 3.5625 2.28125C2.82812 2.70312 2.23438 3.29688 1.78125 4.0625C1.34375 4.82812 1.125 5.64062 1.125 6.5C1.125 7.35938 1.34375 8.17188 1.78125 8.9375C2.23438 9.70312 2.82812 10.2969 3.5625 10.7188C4.29688 11.1562 5.10938 11.375 6 11.375C6.89062 11.375 7.70312 11.1562 8.4375 10.7188C9.17188 10.2969 9.76562 9.70312 10.2188 8.9375C10.6562 8.17188 10.875 7.35938 10.875 6.5C10.875 5.64062 10.6562 4.82812 10.2188 4.0625C9.76562 3.29688 9.17188 2.70312 8.4375 2.28125C7.70312 1.84375 6.89062 1.625 6 1.625ZM6 12.5C4.90625 12.4844 3.90625 12.2188 3 11.7031C2.09375 11.1719 1.35938 10.4375 0.796875 9.5C0.265625 8.54688 0 7.54688 0 6.5C0 5.45312 0.265625 4.45312 0.796875 3.5C1.35938 2.5625 2.09375 1.82812 3 1.29688C3.90625 0.78125 4.90625 0.515625 6 0.5C7.09375 0.515625 8.09375 0.78125 9 1.29688C9.90625 1.82812 10.6406 2.5625 11.2031 3.5C11.7344 4.45312 12 5.45312 12 6.5C12 7.54688 11.7344 8.54688 11.2031 9.5C10.6406 10.4375 9.90625 11.1719 9 11.7031C8.09375 12.2188 7.09375 12.4844 6 12.5ZM5.0625 8.375H5.625V6.875H5.0625C4.71875 6.84375 4.53125 6.65625 4.5 6.3125C4.53125 5.96875 4.71875 5.78125 5.0625 5.75H6.1875C6.53125 5.78125 6.71875 5.96875 6.75 6.3125V8.375H6.9375C7.28125 8.40625 7.46875 8.59375 7.5 8.9375C7.46875 9.28125 7.28125 9.46875 6.9375 9.5H5.0625C4.71875 9.46875 4.53125 9.28125 4.5 8.9375C4.53125 8.59375 4.71875 8.40625 5.0625 8.375ZM6 5C5.78125 5 5.60156 4.92969 5.46094 4.78906C5.32031 4.64844 5.25 4.46875 5.25 4.25C5.25 4.03125 5.32031 3.85156 5.46094 3.71094C5.60156 3.57031 5.78125 3.5 6 3.5C6.21875 3.5 6.39844 3.57031 6.53906 3.71094C6.67969 3.85156 6.75 4.03125 6.75 4.25C6.75 4.46875 6.67969 4.64844 6.53906 4.78906C6.39844 4.92969 6.21875 5 6 5Z" fill="currentColor"/>
</svg>
